<svg width="16" height="16" viewBox="0 0 16 16" fill="none" xmlns="http://www.w3.org/2000/svg">
<g clip-path="url(#clip0_656_18664)">
<path d="M10 12C10 11.7442 10.0977 11.4882 10.293 11.2932L13.5875 8.00005L10.2937 4.7063C9.90312 4.31567 9.90312 3.68286 10.2937 3.29224C10.6844 2.90161 11.3172 2.90161 11.7078 3.29224L15.7078 7.29224C16.0984 7.68286 16.0984 8.31567 15.7078 8.7063L11.7078 12.7063C11.3172 13.0969 10.6844 13.0969 10.2937 12.7063C10.0969 12.5125 10 12.2563 10 12Z" fill="white"/>
<path opacity="0.4" d="M12.5875 9H1C0.447187 9 0 8.55313 0 7.97188C0 7.39063 0.447187 7 1 7H12.5875L13.5875 8L12.5875 9Z" fill="white"/>
</g>
<defs>
<clipPath id="clip0_656_18664">
<rect width="16" height="16" fill="white"/>
</clipPath>
</defs>
</svg>
